<svg width="566" height="230" viewBox="0 0 566 230" fill="none" xmlns="http://www.w3.org/2000/svg">
<g clip-path="url(#clip0_2_50)">
<path fill-rule="evenodd" clip-rule="evenodd" d="M140.433 187.696C85.5543 179.446 44.034 140.933 44.034 94.6647C44.034 48.3974 85.5543 9.88241 140.433 1.63324C133.299 0.560899 125.939 0 118.416 0C53.0167 0 0 42.3829 0 94.6647C0 146.946 53.0167 189.329 118.416 189.329C125.939 189.329 133.299 188.768 140.433 187.696Z" fill="url(#paint0_linear_2_50)"/>
<path d="M70.2164 78.5366H133.411L154.476 93.9634L133.411 109.39H70.2164V78.5366Z" fill="url(#paint1_linear_2_50)"/>
<path fill-rule="evenodd" clip-rule="evenodd" d="M243.578 170.117V189.329H263.815V127.416C263.815 118.107 262.037 110.575 258.48 104.818C255.046 99.0617 249.895 94.8361 243.026 92.1416C236.281 89.4471 227.757 88.0998 217.455 88.0998C214.143 88.0998 210.586 88.1611 206.785 88.2835C203.105 88.2835 199.488 88.406 195.931 88.651C192.373 88.896 189.186 89.1408 186.364 89.3858V111.065C189.798 110.82 193.661 110.636 197.954 110.514C202.369 110.269 206.723 110.085 211.016 109.962C215.309 109.84 218.988 109.779 222.054 109.779C227.941 109.779 232.294 111.187 235.116 114.004C237.937 116.821 239.347 121.108 239.347 126.865V127.783H218.927C210.096 127.783 202.369 128.947 195.747 131.274C189.246 133.601 184.157 137.092 180.477 141.746C176.92 146.401 175.142 152.402 175.142 159.75C175.142 166.486 176.614 172.243 179.558 177.02C182.623 181.797 186.854 185.471 192.251 188.043C197.77 190.615 204.147 191.901 211.384 191.901C218.375 191.901 224.262 190.677 229.045 188.227C233.95 185.655 237.753 181.981 240.451 177.204C241.715 175.064 242.758 172.701 243.578 170.117ZM239.347 152.402V143.032H218.559C212.672 143.032 208.134 144.502 204.945 147.441C201.879 150.259 200.346 153.933 200.346 158.464C200.346 162.996 201.879 166.67 204.945 169.488C208.134 172.305 212.672 173.713 218.559 173.713C222.116 173.713 225.365 173.1 228.309 171.876C231.375 170.528 233.89 168.324 235.852 165.262C237.937 162.077 239.101 157.791 239.347 152.402ZM315.49 228.094C320.517 228.462 325.424 228.645 330.207 228.645C343.697 228.645 354.735 226.87 363.321 223.317C372.028 219.889 378.467 214.437 382.638 206.966C386.807 199.496 388.893 189.697 388.893 177.571V89.7561H388.999V74.3292H405.851V74.3208H418.073V189.329H443.645V74.3208V55.214H418.073H405.563V55.3963H368.637V89.7561H368.656V109.973C368.253 109.024 367.825 108.102 367.368 107.207C363.933 100.47 359.15 95.3262 353.019 91.7742C347.008 88.2222 339.896 86.4463 331.679 86.4463C324.688 86.4463 318.31 87.6711 312.546 90.1207C306.781 92.5704 301.814 96.061 297.645 100.593C293.474 105.124 290.224 110.452 287.895 116.576C285.687 122.578 284.583 129.069 284.583 136.051V139.909C284.583 146.89 285.687 153.442 287.895 159.567C290.102 165.691 293.168 171.019 297.093 175.55C301.14 180.082 305.923 183.634 311.442 186.206C317.084 188.778 323.339 190.064 330.207 190.064C337.934 190.064 344.74 188.411 350.627 185.104C356.514 181.675 361.174 176.775 364.609 170.406C364.671 170.29 364.731 170.172 364.793 170.054V179.041C364.793 185.533 363.566 190.861 361.114 195.025C358.782 199.312 355.043 202.435 349.892 204.394C344.863 206.354 338.24 207.334 330.023 207.334C325.608 207.334 320.885 207.088 315.858 206.599C310.829 206.232 306.107 205.802 301.692 205.313V226.624C305.984 227.237 310.583 227.727 315.49 228.094ZM350.995 164.895C346.948 167.099 342.471 168.202 337.566 168.202C332.169 168.202 327.386 166.977 323.216 164.527C319.169 162.077 315.98 158.586 313.65 154.055C311.319 149.524 310.155 144.196 310.155 138.072C310.155 131.825 311.319 126.436 313.65 121.904C315.98 117.373 319.169 113.882 323.216 111.432C327.386 108.86 332.169 107.574 337.566 107.574C342.349 107.574 346.764 108.615 350.811 110.697C354.859 112.657 358.108 115.596 360.562 119.516C363.137 123.435 364.425 128.212 364.425 133.846V140.276C364.425 146.155 363.198 151.177 360.746 155.341C358.292 159.505 355.043 162.69 350.995 164.895ZM494.914 188.411C501.413 191.35 508.956 192.82 517.542 192.82C525.759 192.82 533.056 191.412 539.434 188.594C545.933 185.777 551.268 181.797 555.439 176.653C559.609 171.509 562.43 165.507 563.902 158.648H540.354C539.25 162.323 536.735 165.446 532.811 168.018C528.886 170.468 523.797 171.692 517.542 171.692C511.287 171.692 506.136 170.344 502.089 167.65C498.041 164.833 495.036 161.037 493.074 156.26C491.77 153.005 490.899 149.454 490.462 145.604H565.557V136.418C565.557 127.6 563.718 119.393 560.038 111.8C556.359 104.083 550.84 97.8982 543.481 93.244C536.245 88.4672 527.23 86.0789 516.438 86.0789C508.22 86.0789 500.985 87.5487 494.73 90.4882C488.475 93.3052 483.2 97.1634 478.909 102.063C474.738 106.839 471.55 112.351 469.343 118.597C467.257 124.721 466.215 131.09 466.215 137.704V141.195C466.215 147.563 467.257 153.81 469.343 159.934C471.55 166.059 474.738 171.631 478.909 176.653C483.2 181.551 488.536 185.471 494.914 188.411ZM490.898 129.988C491.388 127.181 492.114 124.609 493.074 122.272C495.158 117.373 498.164 113.637 502.089 111.065C506.012 108.493 510.796 107.207 516.438 107.207C522.079 107.207 526.74 108.431 530.42 110.881C534.221 113.331 537.042 116.821 538.882 121.353C539.93 123.934 540.678 126.812 541.129 129.988H490.898Z" fill="url(#paint2_linear_2_50)"/>
</g>
<defs>
<linearGradient id="paint0_linear_2_50" x1="70.2165" y1="0" x2="70.2165" y2="189.329" gradientUnits="userSpaceOnUse">
<stop stop-color="#A62CB0"/>
<stop offset="1" stop-color="#5947C7"/>
</linearGradient>
<linearGradient id="paint1_linear_2_50" x1="112.346" y1="78.5366" x2="112.346" y2="109.39" gradientUnits="userSpaceOnUse">
<stop stop-color="#A62CB0"/>
<stop offset="1" stop-color="#5947C7"/>
</linearGradient>
<linearGradient id="paint2_linear_2_50" x1="370.35" y1="55.214" x2="370.35" y2="228.645" gradientUnits="userSpaceOnUse">
<stop stop-color="#A62CB0"/>
<stop offset="1" stop-color="#5947C7"/>
</linearGradient>
<clipPath id="clip0_2_50">
<rect width="565.945" height="230" fill="white"/>
</clipPath>
</defs>
</svg>
