<svg width="403" height="164" viewBox="0 0 403 164" fill="none" xmlns="http://www.w3.org/2000/svg">
<path fill-rule="evenodd" clip-rule="evenodd" d="M100 133.835C60.9218 127.953 31.3559 100.491 31.3559 67.5C31.3559 34.5094 60.9218 7.04658 100 1.16457C94.9201 0.399945 89.6794 0 84.322 0C37.7523 0 0 30.2208 0 67.5C0 104.779 37.7523 135 84.322 135C89.6794 135 94.9201 134.6 100 133.835Z" fill="white"/>
<path d="M50 56H95L110 67L95 78H50V56Z" fill="white"/>
<path fill-rule="evenodd" clip-rule="evenodd" d="M173.448 121.301V135H187.858V90.853C187.858 84.2157 186.592 78.8447 184.059 74.74C181.614 70.6353 177.946 67.6223 173.055 65.701C168.252 63.7797 162.182 62.819 154.846 62.819C152.488 62.819 149.955 62.8627 147.248 62.95C144.628 62.95 142.052 63.0373 139.519 63.212C136.986 63.3867 134.716 63.5613 132.707 63.736V79.194C135.152 79.0193 137.903 78.8883 140.96 78.801C144.104 78.6263 147.204 78.4953 150.261 78.408C153.318 78.3207 155.938 78.277 158.121 78.277C162.313 78.277 165.413 79.2813 167.422 81.29C169.431 83.2987 170.435 86.3553 170.435 90.46V91.115H155.894C149.606 91.115 144.104 91.9447 139.388 93.604C134.759 95.2633 131.135 97.7523 128.515 101.071C125.982 104.39 124.716 108.669 124.716 113.909C124.716 118.712 125.764 122.817 127.86 126.223C130.043 129.629 133.056 132.249 136.899 134.083C140.829 135.917 145.37 136.834 150.523 136.834C155.501 136.834 159.693 135.961 163.099 134.214C166.592 132.38 169.3 129.76 171.221 126.354C172.121 124.828 172.864 123.143 173.448 121.301ZM170.435 108.669V101.988H155.632C151.44 101.988 148.209 103.036 145.938 105.132C143.755 107.141 142.663 109.761 142.663 112.992C142.663 116.223 143.755 118.843 145.938 120.852C148.209 122.861 151.44 123.865 155.632 123.865C158.165 123.865 160.479 123.428 162.575 122.555C164.758 121.594 166.549 120.022 167.946 117.839C169.431 115.568 170.26 112.512 170.435 108.669ZM224.655 162.641C228.235 162.903 231.729 163.034 235.135 163.034C244.741 163.034 252.601 161.768 258.715 159.235C264.915 156.79 269.5 152.903 272.47 147.576C275.439 142.249 276.924 135.262 276.924 126.616V64H277V53H289V52.994H297.703V135H315.912V52.994V39.37H297.703H288.795V39.5H262.5V64H262.514V78.4157C262.227 77.7388 261.922 77.0813 261.597 76.443C259.151 71.6397 255.745 67.9717 251.379 65.439C247.099 62.9063 242.034 61.64 236.183 61.64C231.205 61.64 226.663 62.5133 222.559 64.26C218.454 66.0067 214.917 68.4957 211.948 71.727C208.978 74.9583 206.664 78.7573 205.005 83.124C203.433 87.4033 202.647 92.032 202.647 97.01V99.761C202.647 104.739 203.433 109.411 205.005 113.778C206.577 118.145 208.76 121.944 211.555 125.175C214.437 128.406 217.843 130.939 221.773 132.773C225.79 134.607 230.244 135.524 235.135 135.524C240.637 135.524 245.484 134.345 249.676 131.987C253.868 129.542 257.186 126.048 259.632 121.507C259.676 121.424 259.719 121.34 259.763 121.256V127.664C259.763 132.293 258.889 136.092 257.143 139.061C255.483 142.118 252.82 144.345 249.152 145.742C245.571 147.139 240.855 147.838 235.004 147.838C231.86 147.838 228.497 147.663 224.917 147.314C221.336 147.052 217.974 146.746 214.83 146.397V161.593C217.886 162.03 221.161 162.379 224.655 162.641ZM249.938 117.577C247.056 119.149 243.868 119.935 240.375 119.935C236.532 119.935 233.126 119.062 230.157 117.315C227.275 115.568 225.004 113.079 223.345 109.848C221.685 106.617 220.856 102.818 220.856 98.451C220.856 93.997 221.685 90.1543 223.345 86.923C225.004 83.6917 227.275 81.2027 230.157 79.456C233.126 77.622 236.532 76.705 240.375 76.705C243.781 76.705 246.925 77.4473 249.807 78.932C252.689 80.3293 255.003 82.4253 256.75 85.22C258.584 88.0147 259.501 91.4207 259.501 95.438V100.023C259.501 104.215 258.627 107.796 256.881 110.765C255.134 113.734 252.82 116.005 249.938 117.577ZM352.42 134.345C357.048 136.441 362.419 137.489 368.533 137.489C374.384 137.489 379.58 136.485 384.122 134.476C388.75 132.467 392.549 129.629 395.519 125.961C398.488 122.293 400.497 118.014 401.545 113.123H384.777C383.991 115.743 382.2 117.97 379.406 119.804C376.611 121.551 372.987 122.424 368.533 122.424C364.079 122.424 360.411 121.463 357.529 119.542C354.647 117.533 352.507 114.826 351.11 111.42C350.181 109.099 349.561 106.567 349.25 103.822H402.724V97.272C402.724 90.984 401.414 85.1327 398.794 79.718C396.174 74.216 392.244 69.8057 387.004 66.487C381.851 63.081 375.432 61.378 367.747 61.378C361.895 61.378 356.743 62.426 352.289 64.522C347.835 66.5307 344.079 69.2817 341.023 72.775C338.053 76.181 335.783 80.111 334.211 84.565C332.726 88.9317 331.984 93.473 331.984 98.189V100.678C331.984 105.219 332.726 109.673 334.211 114.04C335.783 118.407 338.053 122.38 341.023 125.961C344.079 129.454 347.878 132.249 352.42 134.345ZM349.56 92.687C349.909 90.6857 350.426 88.8517 351.11 87.185C352.594 83.6917 354.734 81.028 357.529 79.194C360.323 77.36 363.729 76.443 367.747 76.443C371.764 76.443 375.083 77.3163 377.703 79.063C380.41 80.8097 382.419 83.2987 383.729 86.53C384.475 88.37 385.008 90.4223 385.329 92.687H349.56Z" fill="white"/>
</svg>
